<?xml version="1.0" standalone="no"?>
<!DOCTYPE svg PUBLIC "-//W3C//DTD SVG 20010904//EN"
 "http://www.w3.org/TR/2001/REC-SVG-20010904/DTD/svg10.dtd">
<svg version="1.0" xmlns="http://www.w3.org/2000/svg"
 width="200.000000pt" height="200.000000pt" viewBox="0 0 200.000000 200.000000"
 preserveAspectRatio="xMidYMid meet">
<metadata>
Created by potrace 1.11, written by Peter Selinger 2001-2013
</metadata>
<g transform="translate(0.000000,200.000000) scale(0.100000,-0.100000)"
fill="#000000" stroke="none">
<path d="M0 1000 l0 -1000 1000 0 1000 0 0 1000 0 1000 -1000 0 -1000 0 0
-1000z m1067 748 c6 4 13 21 15 37 4 32 11 23 23 -28 5 -23 8 -27 20 -17 8 6
18 9 24 6 5 -4 12 2 14 11 4 14 5 13 6 -4 0 -13 6 -23 11 -23 6 0 11 -8 12
-17 0 -10 4 2 8 27 6 40 7 41 8 12 1 -19 6 -31 12 -27 6 3 11 -2 11 -12 1 -10
5 -4 9 12 7 28 8 28 9 5 1 -20 3 -22 11 -10 8 13 10 13 10 -1 0 -23 28 -32 33
-11 3 9 6 1 7 -18 l3 -35 7 35 c6 31 8 32 9 8 1 -29 16 -45 26 -28 10 16 25
12 26 -7 0 -11 5 -7 11 11 13 35 27 18 29 -34 1 -32 2 -33 9 -10 l8 25 1 -25
c2 -45 21 0 22 55 2 47 2 45 12 -24 8 -66 23 -101 41 -101 3 0 6 10 7 23 0 12
3 16 6 8 5 -11 7 -11 14 0 6 10 9 7 9 -11 0 -30 16 -16 23 20 2 14 5 -2 6 -35
2 -41 5 -54 10 -40 8 19 8 19 16 -4 7 -24 8 -24 21 -6 14 18 14 18 14 -1 0
-14 2 -16 9 -6 6 10 11 4 16 -20 l8 -33 7 45 c4 25 8 38 10 30 1 -8 6 1 10 20
l7 35 2 -45 c2 -25 5 -38 8 -30 11 29 28 30 34 2 6 -24 7 -22 9 13 1 22 4 34
7 27 2 -6 9 -10 14 -6 5 3 9 -3 10 -13 0 -11 3 -13 6 -5 4 10 8 10 19 1 17
-14 18 -36 3 -41 -6 -2 -14 -28 -18 -58 -7 -51 -10 -52 -24 -10 -3 8 -6 -3 -6
-25 -2 -51 -21 -86 -21 -37 0 17 -4 32 -10 32 -5 0 -10 -9 -10 -20 0 -11 -4
-20 -10 -20 -5 0 -10 -11 -10 -25 0 -26 -15 -34 -23 -12 -3 6 -6 -4 -7 -23 -1
-27 -3 -31 -9 -16 -7 18 -8 18 -14 -5 -4 -13 -6 -44 -6 -69 0 -34 2 -40 9 -25
8 17 9 16 11 -10 l2 -30 4 29 c4 22 7 26 14 15 7 -11 9 -11 9 4 0 9 5 17 10
17 6 0 10 -9 10 -19 0 -25 20 -38 21 -14 1 29 9 72 18 95 7 18 9 15 16 -23 7
-40 8 -42 15 -19 7 21 8 22 9 4 1 -11 8 -29 16 -40 15 -20 20 -45 8 -43 -26 4
-33 -4 -33 -36 0 -39 -6 -43 -26 -17 -13 16 -13 16 -14 0 0 -21 -16 -24 -24
-5 -5 9 -7 9 -12 -1 -3 -7 -13 -19 -21 -28 -13 -13 -18 -61 -25 -267 -6 -174
-6 -259 1 -275 6 -12 12 -35 12 -50 1 -19 3 -22 6 -8 4 15 7 16 14 5 7 -11 9
-10 10 6 l0 20 9 -20 c7 -17 9 -16 9 10 2 45 20 10 22 -40 l1 -40 13 40 c7 22
13 32 14 22 1 -10 6 -15 11 -12 6 3 10 0 10 -8 0 -22 27 -41 33 -25 3 7 5 -16
5 -52 -1 -36 -3 -52 -5 -37 -4 27 -5 28 -21 10 -23 -24 -42 -27 -42 -5 -1 10
-8 4 -19 -17 -12 -23 -20 -30 -24 -20 -3 8 -6 -6 -8 -31 -1 -32 -3 -37 -6 -17
-2 15 -9 25 -14 22 -5 -4 -10 13 -10 37 l-1 43 -8 -38 c-8 -42 -20 -60 -21
-31 0 18 -1 18 -9 -1 -7 -16 -9 -17 -9 -3 -1 27 -20 31 -30 6 -7 -21 -9 -18
-16 20 -4 23 -10 40 -15 37 -5 -3 -11 1 -13 7 -9 22 -27 -13 -28 -57 -2 -30
-3 -33 -6 -12 -2 15 -8 27 -13 27 -5 0 -11 10 -13 22 -2 13 -6 -2 -7 -32 -2
-40 -4 -46 -7 -22 -2 18 -9 30 -14 27 -5 -4 -9 6 -10 22 l-1 28 -13 -30 -14
-30 -1 27 c0 14 -3 35 -7 45 -5 13 -10 5 -19 -32 -10 -42 -12 -45 -14 -20 -1
17 -5 39 -10 50 -7 16 -9 13 -9 -17 -1 -41 -21 -64 -21 -24 0 38 -20 42 -21 4
l-1 -33 -11 32 c-17 46 -23 48 -32 11 -6 -29 -8 -31 -15 -13 -5 11 -12 34 -16
50 l-7 30 -7 -25 c-8 -24 -8 -24 -9 -2 -2 35 -29 27 -34 -10 -3 -28 -4 -26 -6
12 -2 34 -4 40 -11 25 -7 -18 -8 -19 -15 -3 -4 10 -11 15 -16 12 -5 -3 -10 12
-10 33 -1 23 -3 29 -6 16 -5 -24 -23 -32 -24 -10 0 6 -5 1 -10 -13 -9 -22 -13
-50 -18 -127 -2 -34 -17 -28 -26 10 -7 31 -7 32 -15 7 -6 -23 -8 -21 -17 20
-11 45 -11 45 -12 10 -1 -26 -4 -31 -11 -20 -8 13 -10 12 -10 -5 0 -34 -18 -2
-23 40 -2 22 -5 -5 -7 -60 l-3 -100 -9 100 c-10 117 -16 140 -28 110 -6 -14
-9 -3 -9 35 0 40 3 49 9 35 7 -16 9 -10 11 25 2 45 2 45 8 10 l7 -35 7 34 c4
18 7 50 6 70 0 28 -2 32 -8 16 -8 -18 -10 -16 -19 15 l-10 35 -2 -45 -1 -45
-14 50 c-8 28 -14 54 -15 58 0 5 -5 5 -10 2 -6 -3 -10 4 -10 17 0 16 -3 19 -8
10 -12 -18 -32 29 -34 81 -1 40 -2 39 -8 -13 l-7 -55 -1 60 c-1 38 -8 69 -19
84 l-16 24 -17 -34 c-9 -19 -22 -33 -28 -32 -7 2 -12 -6 -12 -17 0 -27 -18
-25 -30 3 -8 20 -9 18 -11 -13 l-1 -35 -7 30 c-7 26 -8 22 -15 -30 -11 -90
-13 -95 -16 -35 l-3 55 -7 -40 c-6 -36 -7 -37 -9 -10 -1 17 -6 39 -11 50 -8
18 -9 18 -10 -5 -1 -22 -2 -23 -9 -6 -7 18 -8 18 -14 2 -4 -10 -8 -34 -8 -54
-1 -20 -3 -28 -6 -17 -16 76 -13 73 -33 30 -11 -22 -19 -34 -20 -27 0 28 -20
-1 -20 -29 0 -17 -4 -28 -9 -24 -5 3 -12 -3 -14 -12 -3 -10 -6 0 -7 22 l-2 40
-11 -38 c-7 -22 -15 -35 -19 -31 -5 4 -8 -15 -9 -42 -1 -39 -3 -44 -9 -24 l-7
25 -11 -25 -11 -25 0 28 c-1 15 -5 27 -11 27 -5 0 -11 -12 -11 -27 l-1 -28 -8
30 c-5 21 -8 24 -9 9 -2 -34 -45 -150 -49 -132 -6 28 -22 21 -23 -9 0 -24 -2
-25 -8 -9 -12 31 -61 -80 -62 -141 -2 -47 -2 -46 -9 15 -8 75 -20 92 -21 31 0
-24 -4 -53 -9 -64 -8 -21 -8 -21 -23 25 -3 8 -6 -12 -6 -45 -1 -43 -4 -56 -11
-45 -7 11 -10 6 -11 -20 -1 -32 -2 -33 -9 -10 -4 14 -8 42 -9 62 -1 20 -5 40
-11 43 -13 8 -13 92 0 100 5 3 11 21 12 38 1 26 2 24 7 -13 l6 -45 9 65 c9 61
10 63 16 30 7 -32 7 -31 9 18 1 55 17 71 24 25 3 -22 4 -19 6 12 2 38 3 39 13
15 10 -24 10 -24 18 -5 5 11 9 38 10 60 2 35 3 37 10 15 7 -23 8 -23 10 10 l2
35 8 -30 8 -30 2 35 c1 29 3 32 10 15 6 -14 9 9 11 70 2 80 3 84 9 40 4 -27 8
-43 9 -35 1 12 3 12 10 2 4 -8 12 -12 17 -11 13 4 34 47 35 73 1 11 5 3 9 -19
6 -36 7 -32 9 28 1 79 20 91 23 15 l1 -53 7 45 c4 26 8 34 9 20 2 -32 21 -65
21 -37 0 10 5 15 10 12 6 -4 15 7 21 25 8 20 15 28 23 22 27 -20 76 12 77 53
1 23 3 25 6 8 8 -43 20 -23 30 50 l10 72 2 -57 c0 -32 6 -58 11 -58 6 0 10 7
10 16 0 8 5 12 10 9 6 -4 11 14 12 47 l1 53 6 -52 c8 -71 27 -58 48 33 l17 69
8 -50 c20 -110 45 -68 55 91 3 57 9 101 13 99 11 -7 20 21 20 62 0 26 -4 34
-14 30 -8 -3 -17 -1 -20 6 -2 7 -5 4 -5 -6 -1 -10 -7 -17 -13 -16 -34 4 -38
-2 -39 -58 l-1 -58 -9 59 c-8 57 -19 87 -19 53 0 -10 -4 -17 -10 -17 -5 0 -10
-17 -11 -37 -1 -30 -2 -33 -7 -15 -10 33 -26 31 -33 -4 -6 -25 -7 -23 -9 16
-2 38 -3 41 -10 20 -4 -14 -8 -19 -9 -12 -2 27 -21 -1 -21 -31 0 -24 -3 -28
-10 -17 -8 13 -10 12 -11 -5 -1 -11 -5 -4 -8 15 -7 35 -7 35 -18 -20 -6 -30
-11 -45 -12 -32 -1 17 -6 22 -18 20 -15 -3 -19 -17 -24 -78 l-5 -75 -2 80 c-2
53 -5 75 -11 66 -16 -25 -22 27 -12 99 5 36 9 53 10 38 1 -26 3 -27 26 -16 23
10 25 16 27 92 l2 81 6 -85 c3 -47 7 -74 8 -61 2 20 4 21 17 11 12 -10 15 -9
15 5 0 14 3 15 14 6 16 -13 30 6 47 58 7 26 7 26 9 -4 2 -49 18 0 19 60 1 28
6 57 11 65 6 9 10 10 10 3 0 -6 9 -11 20 -10 17 1 20 9 21 47 1 49 4 46 14
-14 l6 -38 30 33 29 33 1 -30 c1 -16 3 -21 6 -12 2 10 10 15 19 11 9 -3 14 2
15 13 1 11 5 3 9 -16 6 -30 8 -31 10 -10 2 24 3 23 9 -5 l7 -30 16 35 c9 19
17 29 17 22 1 -7 6 -10 11 -7 6 3 10 -5 10 -19 0 -47 17 -36 22 15 6 62 28 91
28 37 0 -41 18 -61 27 -29 3 12 10 21 15 21 10 0 8 21 -8 128 -4 28 -2 42 5
42 6 0 12 22 13 53 l1 52 6 -42 c4 -29 10 -40 18 -35z m790 -1360 c-3 -8 -6
-5 -6 6 -1 11 2 17 5 13 3 -3 4 -12 1 -19z"/>
<path d="M1102 1630 c0 -19 2 -27 5 -17 2 9 2 25 0 35 -3 9 -5 1 -5 -18z"/>
<path d="M1067 1615 c-6 -34 1 -83 14 -91 11 -6 11 73 0 101 -7 17 -8 15 -14
-10z"/>
<path d="M1150 1590 c0 -50 14 -67 24 -30 3 11 8 29 11 39 4 13 -1 23 -15 31
-19 10 -20 8 -20 -40z"/>
<path d="M1123 1575 c0 -27 2 -38 4 -22 2 15 2 37 0 50 -2 12 -4 0 -4 -28z"/>
<path d="M1200 1598 c0 -7 5 -20 10 -28 8 -12 10 -9 10 13 0 15 -4 27 -10 27
-5 0 -10 -6 -10 -12z"/>
<path d="M693 1410 c0 -30 2 -43 4 -27 2 15 2 39 0 55 -2 15 -4 2 -4 -28z"/>
<path d="M713 1410 c0 -30 2 -43 4 -27 2 15 2 39 0 55 -2 15 -4 2 -4 -28z"/>
<path d="M1338 1343 c-7 -27 -25 -30 -31 -5 -4 16 -5 16 -6 0 -1 -20 -21 -25
-22 -5 0 6 -4 2 -10 -11 -5 -13 -13 -20 -19 -17 -5 3 -10 -3 -10 -14 0 -10 -3
-27 -7 -37 -6 -16 -7 -16 -14 2 -4 11 -8 -15 -8 -61 1 -74 1 -77 13 -47 6 18
14 30 18 27 3 -3 8 6 12 20 8 33 26 32 27 -2 2 -24 2 -25 6 -5 2 12 9 22 14
22 5 0 9 8 10 18 1 9 7 -1 13 -22 14 -44 36 -60 36 -27 0 12 5 21 10 21 6 0
10 -7 10 -15 0 -9 6 -12 15 -9 12 5 15 25 14 98 -1 67 -3 82 -9 58 -11 -46
-16 -48 -25 -10 -6 29 -8 30 -15 13 -7 -19 -8 -18 -11 5 -4 25 -4 25 -11 3z"/>
<path d="M1468 1319 c-1 -37 -2 -39 -5 -11 -5 35 -19 43 -27 15 -11 -39 -17
-123 -11 -143 5 -17 10 -19 21 -9 10 8 14 8 14 0 0 -6 5 -11 10 -11 6 0 10 10
10 23 0 17 2 19 9 8 7 -11 11 -4 14 25 l4 39 1 -37 c1 -26 7 -38 17 -38 9 0
15 -9 15 -22 0 -21 1 -21 15 6 20 38 20 116 0 116 -8 0 -15 9 -15 21 0 11 -4
18 -9 14 -5 -3 -12 3 -14 12 -3 10 -6 -2 -7 -27 l-1 -45 -13 48 c-17 64 -26
69 -28 16z"/>
<path d="M861 1284 c0 -11 3 -14 6 -6 3 7 2 16 -1 19 -3 4 -6 -2 -5 -13z"/>
<path d="M882 1280 c0 -14 2 -19 5 -12 2 6 2 18 0 25 -3 6 -5 1 -5 -13z"/>
<path d="M1177 1293 c-4 -3 -7 -24 -7 -45 0 -40 -19 -54 -21 -15 -1 12 -5 4
-8 -18 l-7 -40 -12 35 c-11 34 -12 33 -7 -20 3 -30 5 -65 5 -77 0 -13 5 -23
10 -23 6 0 10 10 10 23 1 21 1 22 15 3 14 -19 15 -18 16 10 l1 29 7 -30 7 -30
7 25 c4 14 7 54 7 90 0 64 -10 97 -23 83z"/>
<path d="M1610 1180 c0 -29 2 -51 4 -49 8 8 10 88 3 95 -4 4 -7 -17 -7 -46z"/>
<path d="M1631 1174 c0 -11 3 -14 6 -6 3 7 2 16 -1 19 -3 4 -6 -2 -5 -13z"/>
<path d="M1250 1136 c0 -9 5 -16 10 -16 6 0 10 4 10 9 0 6 -4 13 -10 16 -5 3
-10 -1 -10 -9z"/>
<path d="M1358 1017 c-5 -10 -9 -35 -9 -55 -1 -20 -4 -28 -6 -18 -4 15 -7 16
-14 5 -6 -9 -9 0 -9 29 0 23 -4 42 -10 42 -9 0 -15 -35 -11 -70 2 -13 1 -13
-8 0 -6 8 -11 23 -11 34 0 15 -3 16 -15 6 -8 -7 -15 -20 -15 -29 0 -14 -2 -14
-10 -1 -8 12 -10 12 -11 -5 l0 -20 -9 20 c-7 16 -9 17 -9 3 -1 -27 -20 -31
-30 -6 -9 21 -10 21 -11 3 -2 -17 -3 -16 -10 5 -7 21 -8 22 -9 5 -1 -17 -3
-17 -11 -5 -8 13 -10 12 -10 -3 0 -10 -4 -15 -10 -12 -6 4 -10 -18 -11 -57 -1
-50 -3 -57 -9 -33 -4 17 -8 49 -9 73 -2 62 -21 51 -21 -12 0 -30 5 -58 10 -61
6 -3 10 -17 10 -31 0 -25 15 -33 23 -11 4 8 6 8 7 -3 1 -8 8 8 15 35 10 37 13
43 14 23 1 -16 6 -28 11 -28 6 0 10 -9 10 -20 0 -11 5 -20 10 -20 6 0 10 10
10 23 0 33 37 31 46 -3 l7 -25 7 30 c8 30 8 29 9 -7 1 -26 6 -38 15 -38 8 0
17 -8 19 -17 3 -12 5 -10 6 7 1 20 3 22 11 10 5 -8 10 -28 11 -45 0 -24 2 -26
8 -11 7 18 8 18 14 2 10 -27 8 -76 -3 -76 -6 0 -10 -30 -10 -70 0 -40 4 -70
10 -70 6 0 10 -8 10 -18 0 -9 9 -23 20 -30 19 -12 20 -9 22 70 1 47 3 64 5 38
2 -25 6 -52 9 -60 4 -13 6 -13 14 0 7 11 10 8 11 -15 1 -16 5 11 10 60 9 117
9 412 -1 450 -4 17 -8 22 -9 11 -1 -15 -4 -16 -16 -6 -13 11 -15 -4 -17 -121
l-2 -134 -6 105 c-4 67 -7 89 -10 60 -3 -36 -5 -29 -9 35 -4 50 -9 73 -13 62z"/>
<path d="M1267 617 c-3 -24 -3 -54 0 -67 6 -22 7 -23 14 -4 11 27 11 114 0
114 -4 0 -11 -19 -14 -43z"/>
<path d="M1301 593 c1 -15 5 -39 9 -53 7 -20 8 -16 9 22 1 26 -3 50 -9 53 -6
4 -10 -6 -9 -22z"/>
</g>
</svg>
